<svg xmlns="http://www.w3.org/2000/svg" width="24" height="24"><g fill="none"><path d="M0 0h24v24H0z"/><g transform="translate(3 5)"><rect width="18" height="14" fill="#F9F9F9" rx="2"/><path fill="#666" d="M1 2.006v9.988C1 12.55 1.446 13 1.995 13h14.01c.55 0 .995-.45.995-1.006V2.006C17 1.45 16.554 1 16.005 1H1.995C1.445 1 1 1.45 1 2.006zm-1 0C0 .898.893 0 1.995 0h14.01C17.107 0 18 .897 18 2.006v9.988C18 13.102 17.107 14 16.005 14H1.995C.893 14 0 13.103 0 11.994V2.006zM9 9l7-4V3.557l-7 4-7-4V5z"/></g></g></svg>