<?xml version="1.0" encoding="utf-8"?>
<svg version="1.1" id="Layer_1" xmlns="http://www.w3.org/2000/svg" xmlns:xlink="http://www.w3.org/1999/xlink" x="0px" y="0px"
	 viewBox="0 0 200 86.5" style="enable-background:new 0 0 200 86.5;" xml:space="preserve">
<style type="text/css">
	.st0{fill:#3EB1C8;}
	.st1{fill:#D8D2C4;}
	.st2{fill:#4F5858;}
	.st3{fill:#FFC72C;}
	.st4{fill:#EF3340;}
</style>
<title>Crossref_CitedByLinking_RGB_200pxWide</title>
<polygon class="st0" points="0.1,66.6 0.1,46.2 16.9,40.7 46.6,50.9 "/>
<polygon class="st1" points="29.8,25 0.1,35.2 16.9,40.7 46.6,30.5 "/>
<polygon class="st2" points="16.9,40.7 46.6,30.5 46.6,50.9 "/>
<polygon class="st3" points="46.6,-1 46.6,19.4 29.8,25 0.1,14.8 "/>
<polygon class="st4" points="29.8,25 0.1,35.2 0.1,14.8 "/>
<path class="st2" d="M76.1,36.3c-0.5-2.7-3-4.7-5.8-4.6c-5.2,0-7.2,4.4-7.2,9.1c0,4.4,2,8.8,7.2,8.8c3.5,0,5.5-2.4,6-5.9h5.6
	c-0.6,6.6-5.1,10.8-11.6,10.8c-8.2,0-13-6.1-13-13.7c0-7.8,4.8-13.9,13-13.9c5.8,0,10.6,3.4,11.4,9.5C81.7,36.3,76.1,36.3,76.1,36.3
	z"/>
<path class="st2" d="M84,34.7h5v3.5l0,0c1.1-2.4,3.4-4,6.1-4.1c0.4,0,0.8,0.1,1.1,0.2v4.9c-0.6-0.1-1.3-0.2-1.9-0.2
	c-3.8,0-5.2,2.8-5.2,6.1v8.6H84V34.7L84,34.7z"/>
<path class="st2" d="M106.3,34.2c6,0,9.9,4,9.9,10.1s-3.9,10.1-9.9,10.1s-9.9-4-9.9-10.1S100.3,34.2,106.3,34.2z M106.3,50.4
	c3.6,0,4.7-3.1,4.7-6.1s-1.1-6.1-4.7-6.1s-4.6,3.1-4.6,6.1C101.6,47.4,102.7,50.4,106.3,50.4z"/>
<path class="st2" d="M122.3,47.7c0,2.3,2,3.2,4,3.2c1.5,0,3.4-0.6,3.4-2.4c0-1.6-2.1-2.1-5.9-3c-3-0.7-6.1-1.7-6.1-5.1
	c0-4.9,4.3-6.1,8.3-6.1c4.1,0,8,1.4,8.4,6.1h-5c-0.1-2-1.7-2.6-3.6-2.6c-1.2,0-2.9,0.2-2.9,1.8c0,1.9,3,2.1,5.9,2.8
	c3,0.7,6.1,1.8,6.1,5.3c0,5-4.4,6.7-8.7,6.7s-8.8-1.7-9-6.7H122.3L122.3,47.7z"/>
<path class="st2" d="M141.4,47.7c0,2.3,2,3.2,4,3.2c1.5,0,3.4-0.6,3.4-2.4c0-1.6-2.1-2.1-5.9-3c-3-0.7-6.1-1.7-6.1-5.1
	c0-4.9,4.3-6.1,8.3-6.1c4.1,0,8,1.4,8.4,6.1h-5c-0.1-2-1.7-2.6-3.6-2.6c-1.2,0-2.9,0.2-2.9,1.8c0,1.9,3,2.1,5.9,2.8
	c3,0.7,6.1,1.8,6.1,5.3c0,5-4.4,6.7-8.7,6.7c-4.4,0-8.8-1.7-9-6.7H141.4L141.4,47.7z"/>
<path class="st2" d="M155.8,34.7h5v3.5h0.1c1.1-2.4,3.4-4,6.1-4.1c0.4,0,0.8,0.1,1.1,0.2v4.9c-0.6-0.1-1.3-0.2-1.9-0.2
	c-3.8,0-5.2,2.8-5.2,6.1v8.6h-5.2L155.8,34.7L155.8,34.7z"/>
<path class="st2" d="M173.9,45.6c0.1,3.3,1.8,4.8,4.7,4.8c2.1,0,3.8-1.3,4.1-2.5h4.6c-1.5,4.5-4.6,6.4-8.9,6.4
	c-6,0-9.8-4.1-9.8-10.1c0-5.7,4-10.1,9.8-10.1c6.5,0,9.7,5.5,9.3,11.3L173.9,45.6L173.9,45.6z M182.4,42.2c-0.5-2.7-1.6-4.1-4.2-4.1
	c-2.3-0.1-4.2,1.6-4.4,3.9c0,0.1,0,0.1,0,0.2L182.4,42.2L182.4,42.2z"/>
<path class="st2" d="M190.6,38.3h-3.2v-3.5h3.2v-1.5c0-3.4,2.1-5.8,6.4-5.8c0.9,0,1.9,0.1,2.8,0.1v3.9c-0.6-0.1-1.3-0.1-1.9-0.1
	c-1.4,0-2,0.6-2,2.1v1.1h3.6v3.5h-3.6v15.6h-5.2L190.6,38.3L190.6,38.3z"/>
<path class="st2" d="M70.3,70.3c-0.4-2.1-2.3-3.6-4.5-3.4c-3.8,0-5.4,3.1-5.4,6.5c0,3.6,1.6,6.7,5.4,6.7c2.8,0,4.4-2,4.6-4.6h2.1
	c-0.4,4-2.9,6.4-6.9,6.4c-5,0-7.4-3.7-7.4-8.3c0-4.7,2.6-8.4,7.6-8.4c3.3,0,6.1,1.8,6.6,5.2L70.3,70.3L70.3,70.3z"/>
<path class="st2" d="M76.6,67.9h-1.9v-2.3h1.9V67.9z M74.7,70h1.9v11.5h-1.9V70L74.7,70z"/>
<path class="st2" d="M82.2,69.9h2.3v1.7h-2.3v7.2c0,0.9,0.2,1.1,1.4,1.1h0.9v1.6H83c-2,0-2.8-0.4-2.8-2.5v-7.4h-2v-1.7h2v-3.5h1.9
	L82.2,69.9L82.2,69.9z"/>
<path class="st2" d="M95.4,77.8c-0.4,2.4-2.5,4.2-5,4c-3.7,0-5.4-2.6-5.6-6.1c-0.1-3.5,2.3-6,5.4-6c4.1,0,5.3,3.8,5.2,6.6h-8.6
	c-0.2,1.9,1.1,3.6,3,3.8c0.2,0,0.4,0,0.6,0c1.4,0.1,2.8-0.9,3-2.3H95.4z M93.6,74.6c0-1.8-1.5-3.3-3.3-3.3s-3.3,1.4-3.4,3.2l0,0h6.7
	V74.6z"/>
<path class="st2" d="M107.9,81.5H106v-1.6l0,0c-0.8,1.3-2.2,2-3.7,1.8c-3.6,0-5.3-2.8-5.3-6.1s1.7-6,5.3-6c1.5-0.1,2.9,0.6,3.7,1.8
	l0,0v-6h1.9V81.5L107.9,81.5z M102.5,80.1c2.6,0,3.5-2.2,3.5-4.4s-1.1-4.4-3.6-4.4c-2.6,0-3.5,2.2-3.5,4.5
	C99,78.1,100.1,80.1,102.5,80.1z"/>
<path class="st2" d="M109.8,74.4h6.5v1.8h-6.5V74.4z"/>
<path class="st2" d="M118.2,65.5h1.9v6l0,0c0.8-1.3,2.2-2,3.7-1.8c3.6,0,5.3,2.8,5.3,6.1s-1.7,6-5.3,6c-1.5,0.1-2.9-0.6-3.7-1.8l0,0
	v1.6h-1.9L118.2,65.5L118.2,65.5z M123.6,71.3c-2.6,0-3.5,2.2-3.5,4.4s1.1,4.4,3.6,4.4s3.5-2.2,3.5-4.5
	C127.2,73.4,126.1,71.3,123.6,71.3z"/>
<path class="st2" d="M134.9,83.1c-0.9,2.3-1.7,3.1-3.4,3.1c-0.4,0-0.9-0.1-1.3-0.2v-1.8c0.4,0.1,0.7,0.2,1.1,0.3
	c0.7,0,1.3-0.4,1.6-1.1l0.8-2l-4.6-11.5h2.1l3.4,9.5l0,0l3.2-9.5h2L134.9,83.1z"/>
</svg>
